<?xml version="1.0" encoding="utf-8"?>
<!-- Generator: Adobe Illustrator 23.0.2, SVG Export Plug-In . SVG Version: 6.00 Build 0)  -->
<svg version="1.1" id="Layer_1" xmlns="http://www.w3.org/2000/svg" xmlns:xlink="http://www.w3.org/1999/xlink" x="0px" y="0px"
	 viewBox="0 0 100 100" style="enable-background:new 0 0 100 100;" xml:space="preserve">
<g>
	<path d="M71.1,25.6H57.8c-0.1-0.8-0.1-2.3,0.8-3.9l0.2-0.3c1.9-3.6,3-6.6,0.2-14.3c-0.4-1-1.5-1.6-2.6-1.2c-1,0.4-1.6,1.5-1.2,2.6
		c2.4,6.6,1.4,8.5,0.1,11l-0.2,0.3c-1.2,2.2-1.3,4.4-1.2,5.8h-4.1c-0.1-0.8-0.1-2.3,0.8-3.9l0.2-0.3c1.9-3.6,3-6.6,0.2-14.3
		c-0.4-1-1.5-1.6-2.6-1.2c-1,0.4-1.6,1.5-1.2,2.6c2.4,6.6,1.4,8.5,0.1,11l-0.2,0.3c-1.2,2.2-1.3,4.4-1.2,5.8h-4.2
		c-0.1-0.8-0.1-2.3,0.8-3.9l0.2-0.3c1.9-3.6,3-6.6,0.2-14.3c-0.4-1-1.5-1.6-2.6-1.2c-1,0.4-1.6,1.5-1.2,2.6c2.4,6.6,1.4,8.5,0.1,11
		l-0.2,0.3c-1.2,2.2-1.3,4.4-1.2,5.8H26.8c-1.6,0-2.8,1.3-2.8,2.8V33c0,2.9,1.3,5.6,3.5,7.4l14,13.4v15.2c0,1.1,0.6,2.1,1.7,2.6
		c0.4,0.2,0.8,0.3,1.2,0.3c0.5,0,1-0.1,1.5-0.4L56,67.7v-14l14.4-13.4c2.3-1.8,3.5-4.5,3.5-7.5v-4.5C73.9,26.9,72.6,25.6,71.1,25.6z
		 M69.9,32.9c0,1.7-0.8,3.3-2.1,4.4L52,52v12.9l-6.5,2.4V52.1L30.2,37.4L30,37.3C28.7,36.2,28,34.6,28,33v-3.3h41.9V32.9z"/>
	<path d="M50.9,77.4c0-1.2-1-2.3-2.3-2.3c-1.2,0-2.3,1-2.3,2.3c0,1.2,1,2.3,2.3,2.3C49.9,79.7,50.9,78.7,50.9,77.4z"/>
	<path d="M52.4,82.8c-1.2,0-2.3,1-2.3,2.3c0,1.2,1,2.3,2.3,2.3c1.2,0,2.3-1,2.3-2.3C54.6,83.9,53.6,82.8,52.4,82.8z"/>
	<path d="M47.7,89.4c-1.2,0-2.3,1-2.3,2.3c0,1.2,1,2.3,2.3,2.3c1.2,0,2.3-1,2.3-2.3C49.9,90.4,48.9,89.4,47.7,89.4z"/>
</g>
</svg>
