<?xml version="1.0" encoding="utf-8"?>
<!-- Generator: Adobe Illustrator 23.0.2, SVG Export Plug-In . SVG Version: 6.00 Build 0)  -->
<svg version="1.1" id="Layer_1" xmlns="http://www.w3.org/2000/svg" xmlns:xlink="http://www.w3.org/1999/xlink" x="0px" y="0px"
	 viewBox="0 0 100 100" style="enable-background:new 0 0 100 100;" xml:space="preserve">
<g>
	<path d="M52.4,28.6c0,0-0.1,0-0.1,0l-5.4,0c0,0-0.1,0-0.1,0c-1.9,0.1-8.1,0.7-10.2,2.9c-0.4,0.4-0.7,1-0.7,1.7v23.8
		c0,0.9,0.8,1.7,1.7,1.7h3l2.7,29.8c0.1,0.9,0.8,1.6,1.7,1.6H54c0.9,0,1.6-0.7,1.7-1.6l2.7-29.8h3c0.9,0,1.7-0.8,1.7-1.7l0-24
		c0-0.4-0.1-0.7-0.3-1C61.1,29.4,55,28.8,52.4,28.6z M59.8,55.2h-2.9c-0.9,0-1.6,0.7-1.7,1.6l-2.7,29.8h-5.7L44,56.8
		c-0.1-0.9-0.8-1.6-1.7-1.6h-2.9V33.6c1.2-0.7,4.7-1.4,7.6-1.6l5.3,0c3.2,0.2,6.5,0.9,7.6,1.6V55.2z"/>
	<path d="M49.6,26.4c4.5,0,8.2-3.7,8.2-8.2s-3.7-8.2-8.2-8.2c-4.5,0-8.2,3.7-8.2,8.2S45.1,26.4,49.6,26.4z M49.6,13.5
		c2.6,0,4.7,2.1,4.7,4.7c0,2.6-2.1,4.7-4.7,4.7c-2.6,0-4.7-2.1-4.7-4.7C44.9,15.6,47,13.5,49.6,13.5z"/>
	<path d="M23.8,27.6h-0.5c-0.9,0-1.7,0.8-1.7,1.7s0.8,1.7,1.7,1.7h5.1c0.9,0,1.7-0.8,1.7-1.7v-5.1c0-0.9-0.8-1.7-1.7-1.7
		s-1.7,0.8-1.7,1.7v1.4l-5.1-5.1c-0.7-0.7-1.8-0.7-2.4,0c-0.7,0.7-0.7,1.8,0,2.4L23.8,27.6z"/>
	<path d="M28.2,55.6h-5.1c-0.9,0-1.7,0.8-1.7,1.7s0.8,1.7,1.7,1.7h1.4l-5.1,5.1c-0.7,0.7-0.7,1.8,0,2.4c0.3,0.3,0.8,0.5,1.2,0.5
		c0.4,0,0.9-0.2,1.2-0.5l4.6-4.6v0.5c0,0.9,0.8,1.7,1.7,1.7s1.7-0.8,1.7-1.7v-5.1C29.9,56.4,29.1,55.6,28.2,55.6z"/>
	<path d="M70.5,31h5.1c0.9,0,1.7-0.8,1.7-1.7s-0.8-1.7-1.7-1.7h-0.5l4.6-4.6c0.7-0.7,0.7-1.8,0-2.4c-0.7-0.7-1.8-0.7-2.4,0l-5.1,5.1
		v-1.4c0-0.9-0.8-1.7-1.7-1.7c-0.9,0-1.7,0.8-1.7,1.7v5.1C68.8,30.2,69.5,31,70.5,31z"/>
	<path d="M74.4,59.1h1.4c0.9,0,1.7-0.8,1.7-1.7s-0.8-1.7-1.7-1.7h-5.1c-0.9,0-1.7,0.8-1.7,1.7v0.5c0,0,0,0,0,0v4.6
		c0,0.9,0.8,1.7,1.7,1.7c0.9,0,1.7-0.8,1.7-1.7v-0.5l4.6,4.6c0.3,0.3,0.8,0.5,1.2,0.5c0.4,0,0.9-0.2,1.2-0.5c0.7-0.7,0.7-1.8,0-2.4
		L74.4,59.1z"/>
	<path d="M81.9,41.9h-7.2l1-1c0.7-0.7,0.7-1.8,0-2.4c-0.7-0.7-1.8-0.7-2.4,0l-3.6,3.6c-0.7,0.7-0.7,1.8,0,2.4l0.3,0.3c0,0,0,0,0,0
		l3.3,3.3c0.3,0.3,0.8,0.5,1.2,0.5c0.4,0,0.9-0.2,1.2-0.5c0.7-0.7,0.7-1.8,0-2.4l-0.3-0.3h6.5c0.9,0,1.7-0.8,1.7-1.7
		S82.9,41.9,81.9,41.9z"/>
	<path d="M30,41.8C30,41.8,30,41.8,30,41.8l-3.3-3.3c-0.7-0.7-1.8-0.7-2.4,0c-0.7,0.7-0.7,1.8,0,2.4l0.3,0.3h-6.5
		c-0.9,0-1.7,0.8-1.7,1.7s0.8,1.7,1.7,1.7h7.2l-1,1c-0.7,0.7-0.7,1.8,0,2.4c0.3,0.3,0.8,0.5,1.2,0.5c0.4,0,0.9-0.2,1.2-0.5l3.6-3.6
		c0.3-0.3,0.5-0.8,0.5-1.2c0-0.5-0.2-0.9-0.5-1.2L30,41.8z"/>
</g>
</svg>
